<svg width="66" height="66" viewBox="0 0 66 66" fill="none" xmlns="http://www.w3.org/2000/svg">
<g style="mix-blend-mode:multiply" opacity="0.1">
<circle cx="33" cy="33" r="33" fill="#0FB3AF"/>
</g>
<g filter="url(#filter0_i_340_17)">
<circle cx="33" cy="33" r="28" fill="#0FB3AF"/>
</g>
<path d="M37.6413 39.0841H28.9847C28.6021 39.0841 28.2351 39.2361 27.9646 39.5067C27.694 39.7772 27.542 40.1442 27.542 40.5269C27.542 40.9095 27.694 41.2765 27.9646 41.547C28.2351 41.8176 28.6021 41.9696 28.9847 41.9696H37.6413C38.0239 41.9696 38.3909 41.8176 38.6615 41.547C38.932 41.2765 39.084 40.9095 39.084 40.5269C39.084 40.1442 38.932 39.7772 38.6615 39.5067C38.3909 39.2361 38.0239 39.0841 37.6413 39.0841Z" fill="white"/>
<path d="M28.9847 36.1986H33.313C33.6957 36.1986 34.0626 36.0466 34.3332 35.7761C34.6038 35.5055 34.7558 35.1385 34.7558 34.7559C34.7558 34.3732 34.6038 34.0063 34.3332 33.7357C34.0626 33.4651 33.6957 33.3131 33.313 33.3131H28.9847C28.6021 33.3131 28.2351 33.4651 27.9646 33.7357C27.694 34.0063 27.542 34.3732 27.542 34.7559C27.542 35.1385 27.694 35.5055 27.9646 35.7761C28.2351 36.0466 28.6021 36.1986 28.9847 36.1986Z" fill="white"/>
<path d="M44.48 28.0183L36.6314 19.3617C36.4965 19.2123 36.3318 19.0927 36.148 19.0107C35.9641 18.9287 35.7651 18.8861 35.5638 18.8856H25.4645C24.9851 18.8799 24.5093 18.9687 24.0643 19.1469C23.6192 19.325 23.2136 19.5891 22.8706 19.9241C22.5277 20.259 22.254 20.6582 22.0653 21.0989C21.8767 21.5396 21.7766 22.0132 21.771 22.4925V44.1339C21.7766 44.6132 21.8767 45.0868 22.0653 45.5275C22.254 45.9682 22.5277 46.3674 22.8706 46.7023C23.2136 47.0373 23.6192 47.3014 24.0643 47.4796C24.5093 47.6577 24.9851 47.7465 25.4645 47.7408H41.1616C41.641 47.7465 42.1168 47.6577 42.5618 47.4796C43.0069 47.3014 43.4125 47.0373 43.7555 46.7023C44.0984 46.3674 44.3721 45.9682 44.5608 45.5275C44.7494 45.0868 44.8495 44.6132 44.8551 44.1339V28.9849C44.8542 28.6274 44.7205 28.2829 44.48 28.0183ZM36.1986 23.2139L40.1517 27.5422H37.2662C37.1151 27.5331 36.9674 27.4939 36.8316 27.4271C36.6958 27.3602 36.5746 27.267 36.4752 27.1529C36.3759 27.0387 36.3002 26.9059 36.2527 26.7622C36.2052 26.6185 36.1868 26.4667 36.1986 26.3158V23.2139ZM41.1616 44.8553H25.4645C25.364 44.8611 25.2634 44.8471 25.1684 44.814C25.0733 44.7808 24.9858 44.7293 24.9107 44.6623C24.8357 44.5953 24.7746 44.5141 24.731 44.4234C24.6873 44.3327 24.662 44.2344 24.6565 44.1339V22.4925C24.662 22.3921 24.6873 22.2937 24.731 22.203C24.7746 22.1123 24.8357 22.0311 24.9107 21.9641C24.9858 21.8971 25.0733 21.8456 25.1684 21.8125C25.2634 21.7793 25.364 21.7653 25.4645 21.7711H33.3131V26.3158C33.2898 27.3786 33.6878 28.4074 34.4203 29.1778C35.1528 29.9481 36.1603 30.3975 37.2229 30.4277H41.9696V44.1339C41.9641 44.2344 41.9388 44.3327 41.8951 44.4234C41.8515 44.5141 41.7904 44.5953 41.7154 44.6623C41.6403 44.7293 41.5528 44.7808 41.4577 44.814C41.3627 44.8471 41.2621 44.8611 41.1616 44.8553Z" fill="white"/>
<defs>
<filter id="filter0_i_340_17" x="5" y="5" width="56" height="56" filterUnits="userSpaceOnUse" color-interpolation-filters="sRGB">
<feFlood flood-opacity="0" result="BackgroundImageFix"/>
<feBlend mode="normal" in="SourceGraphic" in2="BackgroundImageFix" result="shape"/>
<feColorMatrix in="SourceAlpha" type="matrix" values="0 0 0 0 0 0 0 0 0 0 0 0 0 0 0 0 0 0 127 0" result="hardAlpha"/>
<feOffset/>
<feGaussianBlur stdDeviation="0.5"/>
<feComposite in2="hardAlpha" operator="arithmetic" k2="-1" k3="1"/>
<feColorMatrix type="matrix" values="0 0 0 0 0 0 0 0 0 0 0 0 0 0 0 0 0 0 0.2 0"/>
<feBlend mode="normal" in2="shape" result="effect1_innerShadow_340_17"/>
</filter>
</defs>
</svg>
