<svg width="85" height="102" viewBox="0 0 85 102" fill="none" xmlns="http://www.w3.org/2000/svg">
<path d="M67.6528 90.1169L67.6716 96.8071C67.6798 99.6781 70.0096 102 72.8789 102C72.8837 102 72.8891 102 72.8939 102C75.7701 101.992 78.0949 99.6536 78.0868 96.7776L78.0679 90.1169H67.6528Z" fill="#0FB3AF"/>
<path d="M54.9001 88.7844L54.8994 96.7916C54.8992 99.6678 57.2305 101.999 60.1066 102C60.1069 102 60.1069 102 60.1071 102C62.9828 102 65.3145 99.6682 65.3145 96.7923L65.315 90.1163H58.6862C57.2548 90.1168 55.9384 89.6171 54.9001 88.7844Z" fill="#0FB3AF"/>
<path d="M11.6475 17.9879C16.6148 17.9879 20.6415 13.9612 20.6415 8.99397C20.6415 4.02674 16.6148 0 11.6475 0C6.6803 0 2.65356 4.02674 2.65356 8.99397C2.65356 13.9612 6.6803 17.9879 11.6475 17.9879Z" fill="#0FB3AF"/>
<path d="M34.0624 36.6256L20.4355 35.0269L11.5239 26.1722L19.9768 30.6038L23.0933 30.9693V27.1199C23.0933 23.7645 20.3733 21.0442 17.0176 21.0442H6.18271C2.82724 21.0442 0.106956 23.7645 0.106956 27.1199L2.15809e-05 96.7776C-0.00817005 99.6535 2.3167 101.992 5.19285 102C5.19795 102 5.20282 102 5.20791 102C8.07697 102 10.4069 99.6781 10.4151 96.8071L10.5241 58.307C10.5241 58.3022 10.5238 58.2973 10.5238 58.2924H12.7697L12.7726 96.7929C12.7728 99.6688 15.1045 102 17.9804 102C20.8564 102 23.1879 99.6682 23.1877 96.7922C23.1841 50.4703 23.0931 48.4472 23.0931 48.4472L17.4292 47.7828C15.697 47.5795 13.5689 47.6207 12.3229 45.3193L5.40606 32.3292L15.3815 42.241C16.0707 42.9258 16.9698 43.3595 17.9346 43.4727L33.0508 45.246C35.4337 45.5252 37.5874 43.8198 37.8664 41.4416C38.146 39.0609 36.4428 36.9047 34.0624 36.6256Z" fill="#0FB3AF"/>
<path d="M66.4398 17.9879C71.407 17.9879 75.4337 13.9612 75.4337 8.99397C75.4337 4.02674 71.407 0 66.4398 0C61.4725 0 57.4458 4.02674 57.4458 8.99397C57.4458 13.9612 61.4725 17.9879 66.4398 17.9879Z" fill="#0FB3AF"/>
<path d="M82.6447 66.649H78.0959C78.0959 63.9004 78.0959 63.423 78.0959 60.2197C78.0959 58.9969 77.1047 58.0057 75.8819 58.0057H75.1927C75.4402 56.4646 77.0974 46.1462 77.3615 44.501C77.4769 43.7837 77.41 43.0491 77.1676 42.3644L72.0292 27.8552L72.3376 28.3135L77.9801 36.7002V27.1199C77.9801 23.7645 75.2598 21.0442 71.9043 21.0442H61.0695C57.714 21.0442 54.9937 23.7645 54.9937 27.1199V28.6637L41.0839 36.6149C41.9803 38.1738 42.4023 40.0235 42.1767 41.9468C41.8893 44.3972 40.6059 46.487 38.78 47.8638C38.9926 47.7834 39.202 47.6876 39.4057 47.5714L54.9935 38.6609L54.9016 64.2159C56.7288 62.7522 58.5356 62.8853 59.4708 62.8853V60.2197C59.4708 57.8778 60.8419 55.7869 62.9031 54.8125L64.881 42.4967L64.0882 33.4623L63.8478 30.753L68.6164 44.2181C68.3866 45.6485 66.659 56.4055 66.4022 58.0057H65.4487C64.2259 58.0057 63.2347 58.9969 63.2347 60.2197C63.2347 63.3958 63.2347 63.919 63.2347 66.649H58.6861C57.4153 66.649 56.3854 67.6792 56.3854 68.9497V84.0522C56.3854 85.3231 57.4156 86.353 58.6861 86.353H82.6445C83.9153 86.353 84.9452 85.3228 84.9452 84.0522V68.9497C84.9454 67.6792 83.9153 66.649 82.6447 66.649ZM69.8781 63.7306C70.1113 63.768 70.3428 63.7861 70.5715 63.7861C71.547 63.7861 72.4658 63.4532 73.2059 62.8851H73.6678V66.6488H67.6626V62.8851H67.9183C68.4727 63.3126 69.1384 63.6119 69.8781 63.7306Z" fill="#0FB3AF"/>
</svg>
