<svg width="111" height="111" viewBox="0 0 111 111" fill="none" xmlns="http://www.w3.org/2000/svg">
<path d="M55.1164 9.18604C46.0322 9.18604 37.1521 11.8798 29.5989 16.9267C22.0457 21.9736 16.1587 29.1469 12.6823 37.5396C9.20594 45.9323 8.29636 55.1673 10.0686 64.0769C11.8408 72.9865 16.2153 81.1705 22.6387 87.594C29.0622 94.0175 37.2462 98.3919 46.1558 100.164C55.0654 101.936 64.3005 101.027 72.6932 97.5505C81.0858 94.0741 88.2592 88.1871 93.3061 80.6339C98.3529 73.0807 101.047 64.2005 101.047 55.1164C101.047 49.0847 99.8587 43.1121 97.5505 37.5396C95.2423 31.9671 91.859 26.9037 87.594 22.6387C83.329 18.3737 78.2657 14.9905 72.6932 12.6823C67.1206 10.3741 61.148 9.18604 55.1164 9.18604ZM73.4885 59.7094H55.1164C53.8982 59.7094 52.73 59.2255 51.8686 58.3641C51.0073 57.5028 50.5234 56.3345 50.5234 55.1164V36.7442C50.5234 35.5261 51.0073 34.3578 51.8686 33.4965C52.73 32.6351 53.8982 32.1512 55.1164 32.1512C56.3345 32.1512 57.5028 32.6351 58.3642 33.4965C59.2255 34.3578 59.7094 35.5261 59.7094 36.7442V50.5233H73.4885C74.7067 50.5233 75.8749 51.0072 76.7363 51.8686C77.5976 52.73 78.0816 53.8982 78.0816 55.1164C78.0816 56.3345 77.5976 57.5028 76.7363 58.3641C75.8749 59.2255 74.7067 59.7094 73.4885 59.7094Z" fill="#0FB3AF"/>
</svg>
